<svg xmlns="http://www.w3.org/2000/svg" viewBox="0 0 626.86 725.67"><defs><style>.cls-1{fill:#d1d5dc;}</style></defs><g id="Layer_2" data-name="Layer 2"><g id="Layer_1-2" data-name="Layer 1"><path class="cls-1" d="M137.75,387.38C126.35,357,106,314.26,89,306.28c-12.74-4.14-17.21,3.19-19.75-8.28s-.75-44.49,0-51.25c0,0,5.09-87.89,86.29-160.46,22.27-21.65,25.78-12.74,25.78-12.74s2.55,3.19-4.14,18.77-13.36,69.73,1.28,99.66,47.43,65.89,90.1,85.32,50.6,51.9,48.71,75.79a172.54,172.54,0,0,1-6.71,34.29h21.07a187,187,0,0,0,8.23-44.82c1.95-28.85-6.36-85.54,36-108.71,32.69-17.93,71.3-18.95,93.6-13.86s47.11,24.84,53.17,30.25,31.82,33.44,16.56,66.86c-12.65,27.66-37.74,50.3-53.92,70.28h80.33a274.34,274.34,0,0,0,23.56-111.65C589.14,123.45,465.69,0,313.42,0S37.72,123.45,37.72,275.73A274.2,274.2,0,0,0,61.31,387.38ZM201,79.11c20.8-20.78,32-21.48,50.63-20.53s24.64,1.42,42.49,6.21C311,69.28,367.24,76.26,382.05,72s18.38-7.91,21-13.59c2.29-4.94,3.81-13.62,21.5-3.59s116,60.65,134.67,193.4c2.39,21-7.88,13.74-10.5,11-17.61-18.48-33.92-48.24-85-56.37s-84.52.95-139.43,36.29c-32.48,22.45-74.52,7.66-79.29,2.87s-45-26-54.91-68.76C184.71,150.13,178.6,101.55,201,79.11Z"/><path class="cls-1" d="M295.51,491.41c-13.25-10.69-30.7-16.9-51.47-16.9H202.68v164h41.69c49.27,0,79.58-34.12,79.58-81.65,0-15.46-3.25-29.56-9.3-41.57A72.6,72.6,0,0,0,295.51,491.41Z"/><path class="cls-1" d="M590.64,387.4H36.22A36.21,36.21,0,0,0,0,423.62V689.45a36.22,36.22,0,0,0,36.22,36.22H590.64a36.22,36.22,0,0,0,36.22-36.22V423.62A36.21,36.21,0,0,0,590.64,387.4ZM105.94,673.67H65.28V439.4h40.66Zm141.31,0H163.17V439.4H246.9A141.28,141.28,0,0,1,270,441.24a127.78,127.78,0,0,1,15.95,3.62c25.89,7.71,46.86,23.15,60.89,44.08a110.77,110.77,0,0,1,11.3,21.73,127.08,127.08,0,0,1,8.35,46.2C366.46,624.75,319.25,673.67,247.25,673.67Zm314.32,0H411V439.4H558.48v35.81H451.68v62h93.38V572H451.68v65.81H561.57Z"/></g></g></svg>