<svg width="12" height="12" viewBox="0 0 12 12" fill="none" xmlns="http://www.w3.org/2000/svg">
<path d="M8.26764 4.72866C7.96 4.42101 7.36239 3.99724 6.49766 4.01271L5.28454 5.22583C5.14534 5.36503 5.14532 5.5838 5.28454 5.72301C5.42375 5.86223 5.64252 5.86221 5.78171 5.72301C6.19438 5.31035 6.86059 5.31035 7.27328 5.72301C7.68594 6.13568 7.68594 6.80189 7.27328 7.21458L4.19936 10.286C3.78671 10.6986 3.12048 10.6986 2.70779 10.286C2.29513 9.8733 2.29515 9.20704 2.70779 8.7944L3.5593 7.94543C3.46482 7.87087 3.38028 7.79627 3.29577 7.71176C3.03723 7.45322 2.82843 7.15488 2.67927 6.83672L1.71341 7.80005C0.753855 8.7596 0.753855 10.3208 1.71341 11.2803C2.67296 12.2399 4.23414 12.2399 5.19369 11.2803L8.26761 8.20894C8.84954 7.62705 9.53572 5.99674 8.26764 4.72866V4.72866Z" fill="url(#paint0_linear_741_2176)"/>
<path d="M8.7648 4.23148C9.02833 4.49501 9.23219 4.78833 9.3813 5.10652L10.2865 4.19995C11.2461 3.2404 11.2461 1.67923 10.2865 0.719674C9.32697 -0.239881 7.7658 -0.239881 6.80624 0.719674L3.79295 3.7343C2.86145 4.6658 2.80828 6.22992 3.79295 7.21458C4.28772 7.70934 4.97835 7.95063 5.56293 7.93052L6.77606 6.7174C6.91528 6.57818 6.91528 6.35944 6.77606 6.22022C6.63684 6.081 6.4181 6.081 6.27888 6.22022C5.86624 6.63286 5.2 6.63288 4.78731 6.22022C4.37463 5.80756 4.37467 5.1413 4.78731 4.72866L7.8006 1.71403C8.21327 1.30137 8.87948 1.30137 9.29217 1.71403C9.70483 2.1267 9.70483 2.79291 9.29217 3.2056L8.50131 3.99778C8.59078 4.06739 8.68028 4.14696 8.7648 4.23148V4.23148Z" fill="url(#paint1_linear_741_2176)"/>
<defs>
<linearGradient id="paint0_linear_741_2176" x1="0.993744" y1="4.0123" x2="9.28406" y2="4.33714" gradientUnits="userSpaceOnUse">
<stop stop-color="#F5CCA3"/>
<stop offset="0.505208" stop-color="#FD8AB6"/>
<stop offset="1" stop-color="#9A5BEB"/>
</linearGradient>
<linearGradient id="paint1_linear_741_2176" x1="3.07425" y1="7.62939e-06" x2="11.3043" y2="0.322396" gradientUnits="userSpaceOnUse">
<stop stop-color="#F5CCA3"/>
<stop offset="0.505208" stop-color="#FD8AB6"/>
<stop offset="1" stop-color="#9A5BEB"/>
</linearGradient>
</defs>
</svg>
